<?xml version="1.0" encoding="utf-8"?>
<!-- Generator: Adobe Illustrator 27.9.4, SVG Export Plug-In . SVG Version: 9.03 Build 54784)  -->
<svg version="1.1" id="Layer_1" xmlns="http://www.w3.org/2000/svg" xmlns:xlink="http://www.w3.org/1999/xlink" x="0px" y="0px"
	 width="150px" height="150px" viewBox="0 0 150 150" style="enable-background:new 0 0 150 150;" xml:space="preserve">
<path d="M123.7,86.6l-6-4.9c-1.7-1.4-2.6-3.6-2.6-5.9c0-0.5,0-1,0-1.5c0-2.3,0.8-4.5,2.6-5.9l6-4.9c2.5-2.1,3.2-5.7,1.5-8.5
	l-7.7-13.4c-1.6-2.8-5.1-4.1-8.1-2.9l-7.2,2.7c-2.1,0.8-4.5,0.4-6.4-0.7c-0.4-0.3-0.9-0.5-1.3-0.8c-2-1.1-3.5-2.9-3.8-5.2l-1.3-7.6
	c-0.5-3.2-3.3-5.6-6.6-5.6H67.3c-3.3,0-6.1,2.4-6.6,5.6v0l-1.3,7.6c-0.4,2.2-1.9,4.1-3.8,5.2c-0.4,0.2-0.9,0.5-1.3,0.8
	c-1.9,1.2-4.3,1.5-6.4,0.7l-7.2-2.7c-3.1-1.2-6.5,0.1-8.1,2.9l-7.7,13.4c-1.6,2.8-1,6.4,1.5,8.5l6,4.9c1.7,1.4,2.6,3.6,2.6,5.9
	c0,0.5,0,1,0,1.5c0,2.2-0.8,4.5-2.6,5.9l-6,4.9c-2.5,2.1-3.2,5.7-1.5,8.5l7.7,13.4c1.6,2.8,5.1,4.1,8.1,2.9l7.2-2.7
	c2.1-0.8,4.5-0.4,6.4,0.7c0.4,0.3,0.9,0.5,1.3,0.8c2,1.1,3.5,2.9,3.8,5.2l1.3,7.6c0.5,3.2,3.3,5.6,6.6,5.6h15.4
	c3.3,0,6.1-2.4,6.6-5.6l1.3-7.6c0.4-2.2,1.9-4.1,3.8-5.2c0.4-0.2,0.9-0.5,1.3-0.8c1.9-1.2,4.3-1.5,6.4-0.7l7.2,2.7
	c3.1,1.1,6.5-0.1,8.1-2.9l7.7-13.4C126.8,92.3,126.2,88.7,123.7,86.6z M75,92.8c-9.9,0-17.8-8-17.8-17.8s8-17.8,17.8-17.8
	s17.8,8,17.8,17.8S84.9,92.8,75,92.8z"/>
</svg>
