<?xml version="1.0" encoding="utf-8"?>
<!-- Generator: Adobe Illustrator 27.9.4, SVG Export Plug-In . SVG Version: 9.03 Build 54784)  -->
<svg version="1.1" id="Layer_1" xmlns="http://www.w3.org/2000/svg" xmlns:xlink="http://www.w3.org/1999/xlink" x="0px" y="0px"
	 width="132.7px" height="24.8px" viewBox="0 0 132.7 24.8" style="enable-background:new 0 0 132.7 24.8;" xml:space="preserve">
<style type="text/css">
	.st0{fill:#010101;}
</style>
<g>
	<path class="st0" d="M19.4,14.7l-1.2-1c-0.3-0.3-0.5-0.7-0.5-1.1c0-0.1,0-0.2,0-0.3c0-0.4,0.2-0.9,0.5-1.1l1.2-1
		c0.5-0.4,0.6-1.1,0.3-1.7l-1.5-2.6c-0.3-0.6-1-0.8-1.6-0.6l-1.4,0.5C14.8,6,14.4,6,14,5.7c-0.1-0.1-0.2-0.1-0.3-0.1
		c-0.4-0.2-0.7-0.6-0.7-1l-0.2-1.5C12.6,2.5,12.1,2,11.5,2h-3C7.8,2,7.3,2.5,7.2,3.1v0L6.9,4.6C6.8,5,6.6,5.4,6.2,5.6
		C6.1,5.6,6,5.7,5.9,5.7C5.5,6,5.1,6,4.7,5.9L3.3,5.3C2.7,5.1,2,5.4,1.7,5.9L0.2,8.5C-0.1,9.1,0,9.8,0.5,10.2l1.2,1
		c0.3,0.3,0.5,0.7,0.5,1.1c0,0.1,0,0.2,0,0.3c0,0.4-0.2,0.9-0.5,1.1l-1.2,1c-0.5,0.4-0.6,1.1-0.3,1.7l1.5,2.6c0.3,0.6,1,0.8,1.6,0.6
		L4.7,19c0.4-0.2,0.9-0.1,1.2,0.1c0.1,0.1,0.2,0.1,0.3,0.1c0.4,0.2,0.7,0.6,0.7,1l0.2,1.5c0.1,0.6,0.6,1.1,1.3,1.1h3
		c0.6,0,1.2-0.5,1.3-1.1l0.2-1.5c0.1-0.4,0.4-0.8,0.7-1c0.1,0,0.2-0.1,0.3-0.1c0.4-0.2,0.8-0.3,1.2-0.1l1.4,0.5
		c0.6,0.2,1.3,0,1.6-0.6l1.5-2.6C20.1,15.8,19.9,15.1,19.4,14.7z M10,15.9c-1.9,0-3.5-1.6-3.5-3.5S8,8.9,10,8.9s3.5,1.6,3.5,3.5
		S11.9,15.9,10,15.9z"/>
	<g>
		<g>
			<path d="M35,5.6l0,14.5l-2.3,0l-6.8-9.9h-0.1l0,9.9l-2.6,0l0-14.5l2.4,0l6.8,9.9h0.1l0-9.9L35,5.6z"/>
			<path d="M37.8,20.2l0-14.5l9.5,0l0,2.2l-6.8,0l0,3.9l6.3,0l0,2.2l-6.3,0l0,4l6.9,0l0,2.2L37.8,20.2z"/>
			<path d="M52.2,5.7l3.2,5.3h0.1l3.2-5.3l3,0L57.2,13l4.5,7.3l-3.1,0l-3.2-5.3h-0.1l-3.2,5.3l-3,0l4.6-7.3l-4.5-7.3L52.2,5.7z"/>
			<path d="M63.1,7.9l0-2.2l11.6,0l0,2.2l-4.5,0l0,12.3l-2.6,0l0-12.3L63.1,7.9z"/>
			<path d="M85.9,10.5c-0.1-0.3-0.2-0.5-0.3-0.7c-0.1-0.2-0.3-0.4-0.5-0.5c-0.2-0.1-0.4-0.2-0.7-0.3S83.9,9,83.6,9
				c-0.7,0-1.2,0.2-1.7,0.5c-0.5,0.3-0.8,0.8-1.1,1.4c-0.2,0.6-0.4,1.3-0.4,2.2c0,0.9,0.1,1.6,0.3,2.2c0.2,0.6,0.6,1.1,1,1.4
				c0.5,0.3,1,0.5,1.7,0.5c0.6,0,1.1-0.1,1.5-0.3c0.4-0.2,0.7-0.4,0.9-0.7c0.2-0.3,0.3-0.7,0.3-1.1l0.7,0.1l-3.3,0l0-2.8l6.4,0l0,2
				c0,1.3-0.3,2.5-0.8,3.4c-0.6,0.9-1.3,1.7-2.3,2.2c-1,0.5-2.1,0.7-3.4,0.7c-1.4,0-2.7-0.3-3.7-0.9c-1.1-0.6-1.9-1.5-2.5-2.6
				c-0.6-1.1-0.9-2.4-0.9-4c0-1.2,0.2-2.3,0.6-3.2c0.4-0.9,0.9-1.7,1.5-2.3s1.4-1.1,2.3-1.5c0.9-0.3,1.8-0.5,2.8-0.5
				c0.9,0,1.7,0.1,2.4,0.4c0.7,0.2,1.4,0.6,2,1c0.6,0.4,1,1,1.4,1.6c0.3,0.6,0.6,1.3,0.6,2L85.9,10.5z"/>
			<path d="M91.9,20.3l0-14.5l10.5,0l0,3.2l-6.5,0l0,2.5l6,0l0,3.2l-6,0l0,2.5l6.5,0l0,3.2L91.9,20.3z"/>
			<path d="M108.1,20.3l-4.3,0l4.8-14.5l5.4,0l4.8,14.5l-4.3,0l-3.2-10.5h-0.1L108.1,20.3z M107.3,14.6l8,0l0,3l-8,0L107.3,14.6z"/>
			<path d="M120.2,20.4l0-14.5l6.3,0c1.1,0,2,0.2,2.8,0.6c0.8,0.4,1.4,1,1.9,1.7c0.4,0.7,0.7,1.6,0.7,2.7c0,1-0.2,1.9-0.7,2.6
				c-0.5,0.7-1.1,1.3-1.9,1.6c-0.8,0.4-1.8,0.5-2.9,0.5l-3.7,0l0-3.1l3,0c0.5,0,0.9-0.1,1.2-0.2s0.6-0.3,0.8-0.6
				c0.2-0.3,0.3-0.6,0.3-1c0-0.4-0.1-0.8-0.3-1c-0.2-0.3-0.4-0.5-0.8-0.6c-0.3-0.1-0.7-0.2-1.2-0.2l-1.4,0l0,11.4L120.2,20.4z
				 M128.8,13.7l3.6,6.7l-4.3,0l-3.5-6.7L128.8,13.7z"/>
		</g>
	</g>
</g>
</svg>
